HIERARCHY
ROOT Hips
{
	OFFSET 0.00000 0.00000 0.00000
	CHANNELS 6 Xposition Yposition Zposition Zrotation Yrotation Xrotation 
	JOINT RightUpLegDummy
	{
		OFFSET 0 0 0
		CHANNELS 3 Zrotation Yrotation Xrotation
		JOINT RightUpLeg
		{
			OFFSET -3.52197 -3.41223 0.04002
			CHANNELS 3 Zrotation Yrotation Xrotation
			JOINT RightLeg
			{
				OFFSET 0.00006 -17.42390 1.60435
				CHANNELS 3 Zrotation Yrotation Xrotation
				JOINT RightFoot
				{
					OFFSET 0.06154 -16.50078 -1.63900
					CHANNELS 3 Zrotation Yrotation Xrotation
					JOINT RightToes
					{
						OFFSET 0.00298 -1.73825 3.34613
						CHANNELS 3 Zrotation Yrotation Xrotation
						End Site
						{
							OFFSET 0.00480 -0.05416 3.85043
						}
					}
				}
			}
		}
	}
	JOINT SpineDummy
	{
		OFFSET 0 0 0
		CHANNELS 3 Zrotation Yrotation Xrotation
		JOINT Spine
		{
			OFFSET 0.00000 4.68130 0.00000
			CHANNELS 3 Zrotation Yrotation Xrotation
			JOINT Spine1
			{
				OFFSET -0.00000 10.10138 0.05002
				CHANNELS 3 Zrotation Yrotation Xrotation
				JOINT HEadDummy
				{
					OFFSET 0 0 0
					CHANNELS 3 Zrotation Yrotation Xrotation
					JOINT Head
					{
						OFFSET -0.00000 3.43865 0.00438
						CHANNELS 3 Zrotation Yrotation Xrotation
						End Site
						{
							OFFSET -0.11417 5.02924 0.98962
						}
					}
				}
				JOINT LeftShoulder1Dummy
				{
					OFFSET 0 0 0
					CHANNELS 3 Zrotation Yrotation Xrotation
					JOINT LeftShoulder1
					{
						OFFSET 3.53937 -0.14262 -0.08662
						CHANNELS 3 Zrotation Yrotation Xrotation
						JOINT LeftArm
						{
							OFFSET 4.04833 -0.00133 0.12681
							CHANNELS 3 Zrotation Yrotation Xrotation
							JOINT LeftForeArm
							{
								OFFSET 10.33880 -0.01036 -0.55515
								CHANNELS 3 Zrotation Yrotation Xrotation
								JOINT LeftHand
								{
									OFFSET 8.69677 0.07543 0.40060
									CHANNELS 3 Zrotation Yrotation Xrotation
									End Site
									{
										OFFSET 5.28377 -0.21905 0.59205
									}
								}
							}
						}
					}
				}
				JOINT RightShoulderDummy
				{
					OFFSET 0 0 0
					CHANNELS 3 Zrotation Yrotation Xrotation
					JOINT RightShoulder
					{
						OFFSET -3.53937 -0.14262 -0.08660
						CHANNELS 3 Zrotation Yrotation Xrotation
						JOINT RightArm
						{
							OFFSET -4.04833 -0.00133 0.12683
							CHANNELS 3 Zrotation Yrotation Xrotation
							JOINT RightForeArm
							{
								OFFSET -10.37987 -0.01039 -0.55511
								CHANNELS 3 Zrotation Yrotation Xrotation
								JOINT RightHand
								{
									OFFSET -8.67398 0.07538 0.40058
									CHANNELS 3 Zrotation Yrotation Xrotation
									End Site
									{
										OFFSET -5.24810 -0.21916 0.59204
									}
								}
							}
						}
					}
				}
			}
		}
	}
	JOINT LeftUpLegDummy
	{
		OFFSET 0 0 0
		CHANNELS 3 Zrotation Yrotation Xrotation
		JOINT LeftUpLeg
		{
			OFFSET 3.52197 -3.41223 0.04002
			CHANNELS 3 Zrotation Yrotation Xrotation
			JOINT LeftLeg
			{
				OFFSET -0.00012 -17.42399 1.60337
				CHANNELS 3 Zrotation Yrotation Xrotation
				JOINT LeftFoot
				{
					OFFSET -0.09972 -16.50070 -1.63802
					CHANNELS 3 Zrotation Yrotation Xrotation
					JOINT LeftToes
					{
						OFFSET -0.01575 -1.73823 3.34611
						CHANNELS 3 Zrotation Yrotation Xrotation
						End Site
						{
							OFFSET 0.03150 -0.01868 3.85031
						}
					}
				}
			}
		}
	}
}
MOTION
Frames: 19
Frame Time: 0.033333
-8.8348 38.8995 1.6336 95.3778 82.3385 94.0004 0.0000 0.0000 0.0000 -7.8034 -1.4336 -18.7373 -17.2618 -5.2104 67.5288 4.1368 -0.9746 16.8413 0.0000 0.0000 -0.0000 0.0000 0.0000 0.0000 -10.4994 -1.6415 -5.7890 -3.0589 -1.2963 17.9555 0.0000 0.0000 0.0000 -0.9850 2.3136 -8.9025 0.0000 0.0000 0.0000 -20.7570 -3.3117 1.8514 -55.4547 -13.6042 -19.2621 -12.2744 1.8723 37.1945 16.8470 -3.1007 -1.2109 0.0000 0.0000 0.0000 19.4186 1.4974 1.2967 59.1133 10.3952 22.8301 10.5614 14.8079 14.2692 -6.5215 2.1729 -0.4060 0.0000 0.0000 0.0000 -12.8327 -3.6315 -5.5535 -0.6235 7.8279 12.4935 6.5968 -0.2293 -6.6524 -0.0000 0.0000 -0.0000
-7.0968 38.9314 1.6343 108.4680 82.9533 106.8670 0.0000 0.0000 0.0000 -7.1188 -1.3568 -22.9116 -15.4545 -5.5642 64.4179 3.0506 -0.6236 13.5147 0.0000 0.0000 -0.0000 0.0000 0.0000 0.0000 -10.6837 -2.7559 -5.6682 -1.8830 -2.8112 18.0440 0.0000 0.0000 0.0000 -1.0779 2.9890 -9.3259 0.0000 0.0000 0.0000 -20.7793 -3.3473 1.8624 -54.9764 -17.6005 -17.6402 -12.7544 0.0000 34.5301 16.6277 -3.0626 -1.1894 0.0000 0.0000 0.0000 19.1229 1.5596 1.2989 59.1061 7.5899 16.8070 11.5301 13.1822 18.3082 -7.4765 2.1947 -0.4692 0.0000 0.0000 0.0000 -12.3115 -3.0049 -2.3138 -0.4673 6.0355 12.6263 7.1668 -0.0913 -9.0202 -0.0000 0.0000 -0.0000
-5.3413 39.0037 1.6332 120.9100 83.5832 119.3250 0.0000 0.0000 0.0000 -6.3885 -1.1199 -25.9362 -13.5445 -6.6712 57.9751 2.5725 -0.4381 9.8960 0.0000 0.0000 -0.0000 0.0000 0.0000 0.0000 -10.1140 -3.7258 -6.1395 -0.9019 -3.9727 18.3019 0.0000 0.0000 0.0000 -1.2419 3.6402 -9.6233 0.0000 0.0000 0.0000 -20.8237 -3.3011 1.8527 -54.0375 -21.6859 -15.6581 -13.2944 -1.1957 33.0118 16.5691 -3.1518 -1.1972 0.0000 0.0000 0.0000 18.9710 1.5206 1.2817 59.0531 4.9506 7.2715 12.5031 10.5899 25.0555 -7.4614 2.0190 -0.4587 0.0000 0.0000 0.0000 -11.1860 -2.1968 1.1073 -0.6159 4.3264 11.6693 7.2823 0.0283 -10.7830 -0.0000 0.0000 -0.0000
-3.5886 38.9781 1.6682 130.1610 83.8196 128.9390 0.0000 0.0000 0.0000 -6.2786 -0.6661 -27.5942 -11.8612 -8.6436 48.1435 3.7606 -0.5855 7.0604 0.0000 0.0000 -0.0000 0.0000 0.0000 0.0000 -10.1004 -4.5287 -7.2711 0.1295 -4.9164 19.0008 0.0000 0.0000 0.0000 -1.2257 4.2335 -10.0724 0.0000 0.0000 0.0000 -20.6097 -3.2542 1.8264 -53.2221 -25.6894 -13.4851 -13.5901 -2.1167 32.2914 16.7631 -3.2732 -1.2285 0.0000 0.0000 0.0000 18.9794 1.4996 1.2768 58.8697 2.5813 -1.6113 12.8341 8.0416 31.2125 -7.0405 1.7711 -0.4186 0.0000 0.0000 0.0000 -10.0908 -1.3399 3.9702 -0.8882 2.7489 11.0737 6.7037 0.1618 -12.7970 -0.0000 0.0000 -0.0000
-1.8287 38.8797 1.7187 136.2320 83.8049 135.6780 0.0000 0.0000 0.0000 -6.6678 0.3595 -27.8888 -9.6490 -11.2301 35.0223 3.8543 -0.5981 7.1665 0.0000 0.0000 -0.0000 0.0000 0.0000 0.0000 -10.5509 -5.2786 -8.8657 1.4109 -5.8195 20.0058 0.0000 0.0000 0.0000 -1.0540 4.8398 -10.6794 0.0000 0.0000 0.0000 -20.1261 -3.2714 1.8005 -52.7790 -28.9898 -11.0219 -13.6799 -3.5735 30.6812 16.9402 -3.2216 -1.2347 0.0000 0.0000 0.0000 18.9999 1.5593 1.2930 58.6104 0.6272 -8.0052 12.7472 5.7893 35.6086 -6.9065 1.5656 -0.3997 0.0000 0.0000 0.0000 -9.2283 -0.7741 6.5859 -1.0395 1.6410 10.3520 6.0919 0.2519 -14.4324 -0.0000 0.0000 -0.0000
-0.1034 38.8594 1.7356 143.6420 83.8708 143.9640 0.0000 0.0000 0.0000 -6.4373 0.8495 -26.9315 -6.3023 -12.4106 19.2056 2.5518 -0.4165 8.1654 0.0000 0.0000 -0.0000 0.0000 0.0000 0.0000 -10.4802 -5.9965 -10.3265 3.0458 -6.8517 20.7459 0.0000 0.0000 0.0000 -1.1238 5.5116 -11.0341 0.0000 0.0000 0.0000 -19.7739 -3.3107 1.7885 -52.4628 -31.1322 -7.1847 -13.6275 -5.8906 26.7576 16.9167 -3.1041 -1.2166 0.0000 0.0000 0.0000 18.8905 1.6422 1.3089 58.3175 -1.1560 -11.8548 12.4690 3.9810 38.7164 -6.8071 1.4307 -0.3870 0.0000 0.0000 0.0000 -8.0748 -0.3851 9.4634 -1.2437 0.7421 8.2666 5.4964 0.2495 -14.6868 -0.0000 0.0000 -0.0000
1.6257 38.8122 1.7423 151.2860 83.8390 152.3810 0.0000 0.0000 0.0000 -4.6783 -1.9046 -25.1526 -2.7056 -9.3677 4.0579 4.8797 -0.6758 5.6948 0.0000 0.0000 -0.0000 0.0000 0.0000 0.0000 -10.3065 -6.5770 -11.0268 4.7936 -8.0016 20.8160 0.0000 0.0000 0.0000 -1.5424 6.1387 -11.1906 0.0000 0.0000 0.0000 -19.6881 -3.3697 1.7985 -52.1368 -32.2784 -1.5222 -13.2271 -8.7165 21.1326 16.7744 -3.1881 -1.2175 0.0000 0.0000 0.0000 18.6670 1.6889 1.3099 57.9992 -2.9683 -13.8488 12.1342 2.9684 40.7264 -6.3579 1.3361 -0.3562 0.0000 0.0000 0.0000 -6.6795 0.2475 12.0973 -1.6562 -0.5658 6.7278 4.4771 0.2096 -14.4873 -0.0000 0.0000 -0.0000
3.4529 38.6275 1.7740 155.9130 83.8211 157.3060 0.0000 0.0000 0.0000 -4.0600 -3.8627 -23.7039 0.2106 -7.9631 -4.2515 11.1675 -1.1332 0.1739 0.0000 0.0000 -0.0000 0.0000 0.0000 0.0000 -10.3284 -6.9374 -11.0319 6.2109 -8.9810 20.6951 0.0000 0.0000 0.0000 -1.8912 6.6235 -11.7498 0.0000 0.0000 0.0000 -19.6116 -3.5457 1.8394 -51.8455 -32.7477 5.1277 -12.2525 -11.6128 15.2025 16.6722 -3.4498 -1.2458 0.0000 0.0000 0.0000 18.5522 1.7333 1.3156 57.5701 -4.5393 -14.8690 11.9050 2.6909 41.4074 -5.9340 1.2910 -0.3296 0.0000 0.0000 0.0000 -5.5871 0.8297 14.5070 -1.7576 -1.7526 7.1214 3.1403 0.1757 -14.5742 -0.0000 0.0000 -0.0000
5.3754 38.4126 1.8174 159.7370 84.3532 161.0300 0.0000 0.0000 0.0000 -3.3156 -4.2132 -23.1181 1.3030 -9.1698 -4.3652 13.9222 -1.1504 -2.0989 0.0000 0.0000 -0.0000 0.0000 0.0000 0.0000 -9.5026 -7.0429 -11.1571 6.7859 -9.5016 21.1641 0.0000 0.0000 0.0000 -1.8898 7.1042 -12.5807 0.0000 0.0000 0.0000 -19.5696 -3.8494 1.9158 -51.4717 -32.3978 11.2684 -10.8610 -14.1533 9.9320 16.6868 -3.6285 -1.2714 0.0000 0.0000 0.0000 18.7961 1.8200 1.3494 56.8858 -5.5771 -15.4651 11.8287 2.5390 41.1997 -6.0120 1.3340 -0.3361 0.0000 0.0000 0.0000 -4.9332 0.8448 17.1467 -0.9989 -1.5761 8.2120 1.2570 0.1123 -14.0847 -0.0000 0.0000 -0.0000
7.4342 38.2019 1.8582 167.1610 85.4272 168.3060 0.0000 0.0000 0.0000 -1.7784 -3.3104 -22.9919 0.5201 -11.3986 -0.0292 10.0070 -1.1634 2.5002 0.0000 0.0000 -0.0000 0.0000 0.0000 0.0000 -7.2630 -7.0400 -11.9414 6.2491 -9.5026 21.7200 0.0000 0.0000 0.0000 -1.8402 7.8005 -12.5611 0.0000 0.0000 0.0000 -19.9064 -4.0817 1.9999 -51.0392 -30.9551 14.3831 -9.9660 -15.4292 7.3957 16.8293 -3.6450 -1.2850 0.0000 0.0000 0.0000 19.2988 1.9047 1.3960 56.0382 -6.1571 -16.0747 11.6986 1.9589 41.3263 -6.2076 1.3985 -0.3502 0.0000 0.0000 0.0000 -4.1332 0.9198 19.0479 0.0150 -0.4386 10.8939 -2.3011 0.0602 -12.2990 -0.0000 0.0000 -0.0000
9.5297 38.0908 1.8945 -172.0300 86.4689 -170.9400 0.0000 0.0000 0.0000 0.2366 -1.9475 -22.5117 -0.3199 -11.7435 4.0161 4.2485 -0.7604 9.3007 0.0000 0.0000 -0.0000 0.0000 0.0000 0.0000 -3.8580 -6.9068 -12.4811 5.2295 -9.1693 21.2767 0.0000 0.0000 0.0000 -2.0959 8.5994 -11.3976 0.0000 0.0000 0.0000 -20.5225 -4.0701 2.0404 -51.1245 -28.7952 11.8212 -10.6041 -14.4980 10.1871 17.1188 -3.6021 -1.3019 0.0000 0.0000 0.0000 19.5708 1.9260 1.4153 55.4948 -6.2153 -17.0484 11.2148 1.0343 42.0425 -5.8126 1.2892 -0.3229 0.0000 0.0000 0.0000 -2.1944 1.8139 18.5260 0.4778 0.3629 17.1470 -7.2192 0.3369 -7.0155 -0.0000 0.0000 -0.0000
11.4495 38.0989 1.9363 -136.5290 86.3047 -135.7090 0.0000 0.0000 0.0000 2.6057 -0.9459 -21.6491 -0.5229 -10.8612 7.9354 2.0866 -0.3641 10.3201 0.0000 0.0000 -0.0000 0.0000 0.0000 0.0000 -0.2370 -6.5304 -11.3969 5.0283 -8.8308 19.9206 0.0000 0.0000 0.0000 -2.4414 8.9899 -10.5347 0.0000 0.0000 0.0000 -20.8632 -3.9595 2.0345 -52.1951 -26.8201 4.2881 -12.2029 -11.5823 17.1470 17.4497 -3.4531 -1.3065 0.0000 0.0000 0.0000 19.3666 1.9139 1.4019 55.5539 -5.1736 -18.2659 10.4292 0.2530 42.2614 -5.0743 0.9909 -0.2694 0.0000 0.0000 0.0000 0.7275 2.7509 14.7737 0.8470 0.7274 27.7972 -10.3891 1.3574 3.9846 -0.0000 0.0000 -0.0000
13.0549 38.0579 2.0018 -116.2270 84.5725 -116.0640 0.0000 0.0000 0.0000 5.1507 -0.6950 -20.7871 -1.1959 -10.5492 12.9515 2.4682 -0.3502 5.9025 0.0000 0.0000 -0.0000 0.0000 0.0000 0.0000 2.5324 -6.1509 -8.8266 6.2147 -8.6317 19.0413 0.0000 0.0000 0.0000 -2.3297 8.5305 -11.1192 0.0000 0.0000 0.0000 -20.7887 -3.9947 2.0388 -53.8027 -25.6171 -3.0433 -13.3019 -8.3280 23.1849 17.5195 -3.1279 -1.2651 0.0000 0.0000 0.0000 19.1779 1.9176 1.3933 55.8057 -2.6077 -18.8685 9.8417 -0.1635 41.2727 -5.0199 0.8291 -0.2610 0.0000 0.0000 0.0000 3.2757 1.7571 8.5789 1.9779 1.4635 40.7775 -10.3550 2.6352 18.4484 -0.0000 0.0000 -0.0000
14.5144 37.9871 2.0911 -113.3270 83.2069 -113.9950 0.0000 0.0000 0.0000 6.9565 -0.6998 -19.3583 -2.2992 -10.6645 17.1266 2.3891 -0.2649 1.4137 0.0000 0.0000 -0.0000 0.0000 0.0000 0.0000 4.0486 -5.7786 -6.5007 7.6369 -8.2608 19.2343 0.0000 0.0000 0.0000 -1.5620 7.3411 -12.1433 0.0000 0.0000 0.0000 -20.6559 -4.1308 2.0663 -55.0501 -24.9349 -6.3661 -13.9008 -5.9629 26.0415 17.1559 -2.8429 -1.1975 0.0000 0.0000 0.0000 19.5775 1.9018 1.4093 55.7158 1.0716 -18.2113 9.8624 -0.4170 40.0770 -5.9322 1.0523 -0.3198 0.0000 0.0000 0.0000 4.4676 -0.5126 1.7890 4.8263 2.6301 52.6196 -9.4233 3.2748 28.9739 -0.0000 0.0000 -0.0000
16.1417 38.1568 2.1914 -111.9620 83.4935 -113.3640 0.0000 0.0000 0.0000 7.3429 -0.8621 -16.3874 -2.6840 -10.0493 18.2588 1.3070 -0.1210 -1.0922 0.0000 0.0000 -0.0000 0.0000 0.0000 0.0000 4.5097 -5.0381 -5.6035 7.6441 -7.1932 19.5718 0.0000 0.0000 0.0000 -0.5584 5.9693 -11.9414 0.0000 0.0000 0.0000 -20.5974 -4.1495 2.0672 -55.7578 -23.9009 -6.4347 -14.4830 -4.4525 27.7823 16.5907 -2.8837 -1.1621 0.0000 0.0000 0.0000 20.3314 1.8014 1.4205 55.5107 5.0944 -16.4359 10.4050 -0.5512 39.8672 -6.8923 1.3975 -0.3900 0.0000 0.0000 0.0000 4.0079 -1.9996 -4.4325 9.4101 3.7594 61.3250 -7.4679 2.7027 30.8615 -0.0000 0.0000 -0.0000
17.9126 38.4786 2.2792 -103.2380 84.8668 -105.1900 0.0000 0.0000 0.0000 6.8756 -1.7048 -12.5042 -2.1228 -8.0091 17.5228 0.6977 -0.0596 -3.3509 0.0000 0.0000 -0.0000 0.0000 0.0000 0.0000 5.0428 -3.8901 -5.5327 6.1050 -5.3579 19.4680 0.0000 0.0000 0.0000 0.0507 4.8823 -10.6471 0.0000 0.0000 0.0000 -20.3629 -3.9989 2.0102 -56.5490 -21.9349 -5.2721 -14.9028 -3.7427 29.7753 16.2326 -3.1984 -1.1783 0.0000 0.0000 0.0000 20.6609 1.6132 1.3861 55.8457 9.1331 -13.9807 11.1734 -0.1796 40.3280 -7.0576 1.5109 -0.4059 0.0000 0.0000 0.0000 2.8344 -2.0656 -9.9973 12.6956 3.9250 66.4275 -4.3946 1.3184 25.6411 -0.0000 0.0000 -0.0000
19.6596 38.6554 2.3399 -82.7089 85.8726 -85.0892 0.0000 0.0000 0.0000 6.2674 -2.8581 -9.0094 -1.4116 -5.3959 17.3809 0.7565 -0.0568 -6.3258 0.0000 0.0000 -0.0000 0.0000 0.0000 0.0000 6.2698 -2.6374 -5.2893 4.2937 -3.2981 19.1090 0.0000 0.0000 0.0000 0.0130 4.1877 -9.7129 0.0000 0.0000 0.0000 -19.9372 -3.8287 1.9354 -57.6728 -19.1972 -4.2550 -15.0171 -3.8107 31.2640 16.1339 -3.4452 -1.2035 0.0000 0.0000 0.0000 20.3364 1.3845 1.3093 56.6763 13.1552 -10.8383 12.1136 1.2852 39.9375 -6.6612 1.5012 -0.3818 0.0000 0.0000 0.0000 2.0260 -1.8230 -15.0170 12.7506 3.4784 68.2108 -1.7458 0.3507 19.0783 -0.0000 0.0000 -0.0000
21.3877 38.6949 2.3986 -57.3472 86.0125 -60.0197 0.0000 0.0000 0.0000 5.5568 -3.9104 -5.8992 -0.8290 -2.9194 17.6569 0.5323 -0.0449 -9.0875 0.0000 0.0000 -0.0000 0.0000 0.0000 0.0000 7.2635 -1.4529 -4.8702 2.9977 -1.5245 18.6092 0.0000 0.0000 0.0000 -0.3508 3.7147 -9.7066 0.0000 0.0000 0.0000 -19.6644 -3.7079 1.8852 -58.7373 -16.1548 -4.1198 -14.9639 -4.1793 31.5853 15.9628 -3.4426 -1.1900 0.0000 0.0000 0.0000 19.9874 1.1828 1.2400 57.2347 16.9655 -5.0799 12.9743 4.5937 35.8807 -6.5094 1.6829 -0.3816 0.0000 0.0000 0.0000 1.4978 -2.0162 -19.4901 11.3283 3.3144 66.9550 0.1515 -0.1312 15.0599 -0.0000 0.0000 -0.0000
23.1165 38.7520 2.4738 -35.1747 85.7035 -37.9132 0.0000 0.0000 0.0000 4.4650 -4.7911 -2.7025 -0.2494 -0.7180 17.0945 0.1993 -0.0409 -11.0853 0.0000 0.0000 -0.0000 0.0000 0.0000 0.0000 7.3982 -0.3784 -4.6667 1.9282 -0.1320 18.0694 0.0000 0.0000 0.0000 -0.5335 3.3143 -10.1154 0.0000 0.0000 0.0000 -19.6823 -3.5914 1.8560 -59.4864 -13.1005 -5.8450 -14.8732 -4.0027 31.9185 15.6650 -3.3042 -1.1491 0.0000 0.0000 0.0000 20.0737 1.1012 1.2222 57.2855 20.3998 6.4982 12.2574 10.1830 24.8195 -6.9358 2.0562 -0.4271 0.0000 0.0000 0.0000 0.9461 -2.1678 -23.1738 10.1008 3.7968 62.5544 0.7459 -0.2283 11.6976 -0.0000 0.0000 -0.0000
